<svg xmlns="http://www.w3.org/2000/svg" viewBox="0 0 512 512" style="height: 512px; width: 512px;"><defs><filter id="shadow-2" height="300%" width="300%" x="-100%" y="-100%"><feFlood flood-color="rgba(77, 69, 57, 1)" result="flood"></feFlood><feComposite in="flood" in2="SourceGraphic" operator="out" result="composite"></feComposite><feGaussianBlur in="composite" stdDeviation="15" result="blur"></feGaussianBlur><feOffset dx="0" dy="0" result="offset"></feOffset><feComposite in2="SourceGraphic" in="offset" operator="atop"></feComposite></filter></defs><circle cx="256" cy="256" r="256" fill="#574852" fill-opacity="1"></circle><g class="" transform="translate(0,0)" style=""><path d="M254.1 18.63c-81.4 0-231.43 155.97-171.63 300.77 8 25.3 27.83 50.4 49.13 77.1 24.4 30.6 51.6 63.2 68.7 96.9h20.5c-18.1-39.8-48.5-75.9-74.6-108.6-27.4-34.3-48.73-65.2-48.73-87.9.1-9.1 2.23-18.1 5.53-26.3 23-61.4 114-119.7 148.5-135l3.6-2 3.9 1.3c60.9 20.9 129.3 66.7 154 135.7 4.1 11.7 5.9 18 5.6 27.3-.5 15.8-24.5 54.7-55 88.7-29.1 32.4-62.4 67.7-80 106.7h20.5c16.8-32.2 46.2-64 73.3-94.2 23.2-25.6 45.3-50 54.9-74.8 52.9-124-99.2-305.67-178.2-305.67zm.8 135.47c-38.7 21.5-85.1 52.2-113.7 88.2 9.7 83 59 146.1 118.3 146.1 59.2 0 108.3-62.7 118.2-145.3-28.9-42.1-78-72.9-122.8-89zm-58.3 83h2.4c13.1.1 26.1 2.7 39.1 7.4-16.8 40.6-59 42-78.1 0 12.2-4.8 24.4-7.2 36.6-7.4zm124.9 0c13-.1 26 2.3 39.1 7.4-19.2 42-61.3 40.6-78.2 0 13.1-4.7 26.1-7.3 39.1-7.4z" fill="#b3a555" fill-opacity="1" transform="translate(76.8, 76.8) scale(0.7, 0.7) rotate(0, 256, 256) skewX(0) skewY(0)"></path></g><g class="" transform="translate(256,256)" style=""><g><circle cx="128" cy="128" r="128" fill="#4d4539" fill-opacity="1"></circle><circle stroke="#d2c9a5" stroke-opacity="1" fill="#4d4539" fill-opacity="1" stroke-width="18" cx="128" cy="128" r="101"></circle><path fill="#d2c9a5" fill-opacity="1" d="M128 55c-9.118 0-17.148 1.724-23.621 6.203-6.473 4.479-10.598 11.358-12.98 19.092-3.278 10.638-4.112 23.58-4.323 39.705H76v68h104v-68h-11.078c-.214-16.037-1.051-28.954-4.318-39.588-2.38-7.746-6.49-14.642-12.958-19.15C145.18 56.754 137.132 55 128 55zm0 18c6.868 0 10.821 1.264 13.354 3.03 2.532 1.764 4.423 4.395 6.042 9.667 2.212 7.2 3.07 18.826 3.4 34.303h-45.595c.33-15.57 1.188-27.224 3.4-34.404 1.618-5.248 3.493-7.842 6.02-9.59C117.148 74.257 121.118 73 128 73zm0 60.191c6.503 0 11.775 5.273 11.775 11.776a11.775 11.775 0 0 1-6.025 10.262l6.025 19.58h-23.55l6.023-19.573a11.776 11.776 0 0 1-6.023-10.27c0-6.502 5.272-11.774 11.775-11.775z"></path></g></g></svg>