<svg xmlns="http://www.w3.org/2000/svg" viewBox="0 0 512 512" style="height: 256px; width: 256px;"><defs><filter id="shadow-2" height="300%" width="300%" x="-100%" y="-100%"><feFlood flood-color="rgba(77, 69, 57, 1)" result="flood"></feFlood><feComposite in="flood" in2="SourceGraphic" operator="out" result="composite"></feComposite><feGaussianBlur in="composite" stdDeviation="15" result="blur"></feGaussianBlur><feOffset dx="0" dy="0" result="offset"></feOffset><feComposite in2="SourceGraphic" in="offset" operator="atop"></feComposite></filter></defs><g class="" transform="translate(0,0)" style=""><path d="M322.248 85.684L61.432 224.717l-41.145 109.94 7.233 3.85 153.673 81.8 308.495-164.215-37.752-99.903-129.688-70.506zm119.035 95.187l25.11 66.45-102.56 54.594L430.39 186.64l10.893-5.77zm-89.576 47.417L284.957 343.9l-41.67 22.182 72.195-118.62 36.225-19.175zM72.38 248.78l28.21 14.933-54.012 54.012L72.38 248.78zm210.827 15.767L211.19 382.87l.26.16-17.208 9.16 5.795-83.618 83.17-44.025zm-165.334 8.312l16.963 8.98-60.445 60.445-16.93-9.012 60.413-60.414zM181.42 306.9l-6.174 89.07-54.1-28.798 60.274-60.272z" fill="#77743b" fill-opacity="1" transform="translate(76.8, 76.8) scale(0.7, 0.7) rotate(0, 256, 256) skewX(0) skewY(0)" stroke="#4b3d44" stroke-opacity="1" stroke-width="8"></path></g></svg>