<svg xmlns="http://www.w3.org/2000/svg" viewBox="0 0 512 512" style="height: 256px; width: 256px;"><defs><filter id="shadow-2" height="300%" width="300%" x="-100%" y="-100%"><feFlood flood-color="rgba(77, 69, 57, 1)" result="flood"></feFlood><feComposite in="flood" in2="SourceGraphic" operator="out" result="composite"></feComposite><feGaussianBlur in="composite" stdDeviation="15" result="blur"></feGaussianBlur><feOffset dx="0" dy="0" result="offset"></feOffset><feComposite in2="SourceGraphic" in="offset" operator="atop"></feComposite></filter></defs><polygon points="379,469.04,133,469.04,10,256,133,42.96,379,42.96,502,256" fill="#4b726e" fill-opacity="1" stroke="#4b3d44" stroke-opacity="1" stroke-width="10"></polygon><g class="" transform="translate(0,0)" style=""><path d="M294.8 26.57L238 60.37l7.8 13.17L281 52.59 270.8 118l6.3 10.6L336 93.53l-7.8-13.17-37.3 22.14L301 37.12l-6.2-10.55zM147.1 60.55A224 224 0 0 0 32 256a224 224 0 0 0 224 224 224 224 0 0 0 214.9-161.2A208 208 0 0 1 320 384a208 208 0 0 1-208-208 208 208 0 0 1 35.1-115.45zm244.5 52.05l-6.9 16.5 44.1 18.4-68.3 35.9-5.5 13.2 73.7 30.8 6.9-16.5-46.7-19.5 68.3-35.9 5.5-13.2-71.1-29.7zm-115 64l-97.8 35 8.1 22.7 60.6-21.7-35.4 97.9 6.5 18.1L320 292.4l-8.1-22.7-64.2 23 35.4-97.9-6.5-18.2z" fill="#b3a555" fill-opacity="1" stroke="#4b3d44" stroke-opacity="1" stroke-width="8" transform="translate(76.8, 76.8) scale(0.7, 0.7) rotate(0, 256, 256) skewX(0) skewY(0)"></path></g></svg>