<svg xmlns="http://www.w3.org/2000/svg" viewBox="0 0 512 512" style="height: 256px; width: 256px;"><defs><filter id="shadow-2" height="300%" width="300%" x="-100%" y="-100%"><feFlood flood-color="rgba(77, 69, 57, 1)" result="flood"></feFlood><feComposite in="flood" in2="SourceGraphic" operator="out" result="composite"></feComposite><feGaussianBlur in="composite" stdDeviation="15" result="blur"></feGaussianBlur><feOffset dx="0" dy="0" result="offset"></feOffset><feComposite in2="SourceGraphic" in="offset" operator="atop"></feComposite></filter></defs><g class="" transform="translate(0,0)" style=""><path d="M427.6 106c15.6.1 27.7 13.8 25.7 29.3-16 124-16 117.4 0 241.4 2.5 19.8-17.4 35-35.8 27.3l-267-111.1v98.8c0 7.9-8.9 14.2-20 14.3H78.49c-11.1-.1-20-6.4-20-14.3V120.2c.1-7.8 9-14.1 20-14.2h52.01c11 .1 19.9 6.4 20 14.2v98.9l267-111.1c3.2-1.3 6.6-2 10.1-2z" fill="#ab9b8e" fill-opacity="1" stroke="#4b3d44" stroke-opacity="1" stroke-width="8" transform="translate(102.4, 102.4) scale(0.6, 0.6) rotate(0, 256, 256) skewX(0) skewY(0)"></path></g></svg>