<svg xmlns="http://www.w3.org/2000/svg" viewBox="0 0 512 512" style="height: 512px; width: 512px;"><defs><filter id="shadow-2" height="300%" width="300%" x="-100%" y="-100%"><feFlood flood-color="rgba(77, 69, 57, 1)" result="flood"></feFlood><feComposite in="flood" in2="SourceGraphic" operator="out" result="composite"></feComposite><feGaussianBlur in="composite" stdDeviation="15" result="blur"></feGaussianBlur><feOffset dx="0" dy="0" result="offset"></feOffset><feComposite in2="SourceGraphic" in="offset" operator="atop"></feComposite></filter></defs><circle cx="256" cy="256" r="256" fill="#574852" fill-opacity="1"></circle><g class="" transform="translate(0,0)" style=""><path d="M256 19c-13.8 0-27.9 3.02-41.5 8.48L256 79.44l41.5-51.96C283.9 22.02 269.8 19 256 19zm-59.4 16.96c-18.5 10.27-35.9 24.69-50.9 41.74-10.8 12.21-20.2 25.7-24.8 32.4l-64.8 87.1 59.1 83L95.9 348l71.6 64.2-6.9-27.3 36.1-108.2-40.7 27.1-75.98-106.3 42.28-56.3 97.4 48.7h72.7l97.4-48.7 42.3 56.3-76 106.3-40.8-27.2 1 3.2 35.2 105.1-6.9 27.3 71.5-64.2-19.4-67.8 59.2-83-64.8-87.1c-4.6-6.7-14-20.19-24.8-32.4-15-17.05-32.4-31.47-50.9-41.74L256 110.2zm15.1 256.44l-5 15h98.6l-5-15zm-11.5 34.2l-16.3 49.1h144.2l-16.4-49.1zm-17.3 68.3l12.3 49.2h121.6l12.2-49.2zm33.6 68.4L256 493l39.5-29.7z" fill="#b3a555" fill-opacity="1" transform="translate(76.8, 76.8) scale(0.7, 0.7) rotate(0, 256, 256) skewX(0) skewY(0)"></path></g><g class="" transform="translate(256,256)" style=""><g><circle cx="128" cy="128" r="128" fill="#4d4539" fill-opacity="1"></circle><circle stroke="#d2c9a5" stroke-opacity="1" fill="#4d4539" fill-opacity="1" stroke-width="18" cx="128" cy="128" r="101"></circle><path fill="#d2c9a5" fill-opacity="1" d="M128 55c-9.118 0-17.148 1.724-23.621 6.203-6.473 4.479-10.598 11.358-12.98 19.092-3.278 10.638-4.112 23.58-4.323 39.705H76v68h104v-68h-11.078c-.214-16.037-1.051-28.954-4.318-39.588-2.38-7.746-6.49-14.642-12.958-19.15C145.18 56.754 137.132 55 128 55zm0 18c6.868 0 10.821 1.264 13.354 3.03 2.532 1.764 4.423 4.395 6.042 9.667 2.212 7.2 3.07 18.826 3.4 34.303h-45.595c.33-15.57 1.188-27.224 3.4-34.404 1.618-5.248 3.493-7.842 6.02-9.59C117.148 74.257 121.118 73 128 73zm0 60.191c6.503 0 11.775 5.273 11.775 11.776a11.775 11.775 0 0 1-6.025 10.262l6.025 19.58h-23.55l6.023-19.573a11.776 11.776 0 0 1-6.023-10.27c0-6.502 5.272-11.774 11.775-11.775z"></path></g></g></svg>