<svg xmlns="http://www.w3.org/2000/svg" viewBox="0 0 512 512" style="height: 512px; width: 512px;"><defs><filter id="shadow-2" height="300%" width="300%" x="-100%" y="-100%"><feFlood flood-color="rgba(77, 69, 57, 1)" result="flood"></feFlood><feComposite in="flood" in2="SourceGraphic" operator="out" result="composite"></feComposite><feGaussianBlur in="composite" stdDeviation="15" result="blur"></feGaussianBlur><feOffset dx="0" dy="0" result="offset"></feOffset><feComposite in2="SourceGraphic" in="offset" operator="atop"></feComposite></filter></defs><circle cx="256" cy="256" r="256" fill="#574852" fill-opacity="1"></circle><g class="" transform="translate(0,0)" style=""><path d="M256.3 19.42C204 57.2 177.2 111 152.5 160.7c43.4-24.6 101.7-32.9 126.9-28.7-63.8 10.6-108 25.8-144.4 64.3-2.2 4.5-4.1 8.3-6.4 13.1 115.4-27.8 134.4-27 250.9-.7C368 158.6 343 126.6 304 65.83 345.9 118.4 428.1 208.1 424.3 190.6 401.4 85.73 324.2 23.49 256.3 19.42zM88 231.3c-31 7.4-53.9 17.5-62.8 26.7.9 11.7 6.7 22.1 17.5 32 11.8 10.8 29.6 20.4 51.3 28.1 2.69.9 5.39 1.8 8.1 2.7-8.4-11-11.2-26.3-13-41.1 0-15.4-3-33.5-1.1-48.4zm336 0c2.2 16.2.6 34.5-1.1 48.4-1.8 14.8-4.6 30.1-13 41.1 20.2-7 44.6-17.6 59.4-30.8 10.8-9.9 16.6-20.3 17.5-32-8.9-9.2-31.7-19.3-62.8-26.7zm-274.4.3l-7 14h98.8l-7-14zm128 0l-7 14h98.8l-7-14zM119 241c-4.7 1.3-9.4 2.6-14 4.1 1 19.9.6 47.6 11.6 64.5h2.4zm274 0v68.6h2.4c10.5-20.7 11.3-41.8 11.6-64.5-4.6-1.5-9.3-2.8-14-4.1zm-255.9 22.6c-.3 18.8 2 39.5 6.2 55.7 21.1-14.1 41.9-25.7 64.7-25.7 3.2 0 6.4.2 9.4.4l5.2-15.7c-5.6 5.7-12.9 8.9-23.2 8.5-25.2-.8-33.9-11.1-37.5-23.2zm109.4 0l-12.4 37.2 21.9 27.4 21.9-27.4-12.4-37.2zm103.6 0c-3.6 12.1-12.3 22.4-37.5 23.2-10.3.4-17.6-2.8-23.2-8.5l5.2 15.7c3.1-.3 6.3-.4 9.4-.4 22.8 0 43.6 11.6 64.7 25.7 4.4-20.1 6.8-37.6 6.2-55.7zm-142.1 48c-20 0-43 14.5-68.9 32.4-19.2 13.3-39.9 28.1-63.3 38.4 28.6 6.1 65.8 4.8 98.2-2.6 21.3-4.8 40.5-12.1 53.7-20.5 8.5-5.5 14.1-11.1 17-16.4l-24.2-30.3c-3.7-.6-7.9-1-12.5-1zm96 0c-4.6 0-8.8.4-12.5 1l-24.2 30.3c2.9 5.3 8.5 10.9 17 16.4 13.2 8.4 32.4 15.7 53.7 20.5 32.4 7.4 69.6 8.7 98.2 2.6-23.4-10.3-44.1-25.1-63.3-38.4-25.9-17.9-48.9-32.4-68.9-32.4zm-48 46.7c-4.6 5.7-10.6 10.8-17.4 15.3h34.8c-6.8-4.5-12.8-9.6-17.4-15.3zm-56.7 33.3c-6.9 2.2-14 4.1-21.3 5.8-9.5 2.2-19.2 3.9-28.9 5.1 6.1 19.6 14.1 39.5 23 58.2l.1.2c4.3-6.7 9.4-13.1 13.5-19.8-2.4 13.9-3.3 27.9-2.3 41.8 1.7 3.3 3.5 6.5 5.3 9.7h134.6c3.6-6.3 7-12.7 10.3-19.2 5.4-21.9 3.9-42.8 5.4-64.2 3.1 11.5 6.1 23 8.5 34.7 5.8-13.6 11.1-27.6 15.4-41.4-9.7-1.2-19.4-2.9-28.9-5.1-7.3-1.7-14.4-3.6-21.3-5.8z" fill="#b3a555" fill-opacity="1" transform="translate(76.8, 76.8) scale(0.7, 0.7) rotate(0, 256, 256) skewX(0) skewY(0)"></path></g><g class="" transform="translate(256,256)" style=""><g><circle cx="128" cy="128" r="128" fill="#4d4539" fill-opacity="1"></circle><circle stroke="#d2c9a5" stroke-opacity="1" fill="#4d4539" fill-opacity="1" stroke-width="18" cx="128" cy="128" r="101"></circle><path fill="#d2c9a5" fill-opacity="1" d="M128 55c-9.118 0-17.148 1.724-23.621 6.203-6.473 4.479-10.598 11.358-12.98 19.092-3.278 10.638-4.112 23.58-4.323 39.705H76v68h104v-68h-11.078c-.214-16.037-1.051-28.954-4.318-39.588-2.38-7.746-6.49-14.642-12.958-19.15C145.18 56.754 137.132 55 128 55zm0 18c6.868 0 10.821 1.264 13.354 3.03 2.532 1.764 4.423 4.395 6.042 9.667 2.212 7.2 3.07 18.826 3.4 34.303h-45.595c.33-15.57 1.188-27.224 3.4-34.404 1.618-5.248 3.493-7.842 6.02-9.59C117.148 74.257 121.118 73 128 73zm0 60.191c6.503 0 11.775 5.273 11.775 11.776a11.775 11.775 0 0 1-6.025 10.262l6.025 19.58h-23.55l6.023-19.573a11.776 11.776 0 0 1-6.023-10.27c0-6.502 5.272-11.774 11.775-11.775z"></path></g></g></svg>